<?xml version="1.0" encoding="UTF-8" standalone="no"?>
<svg
   width="200"
   height="23"
   viewBox="0 0 200 23"
   fill="none"
   version="1.1"
   xmlns="http://www.w3.org/2000/svg"
   xmlns:svg="http://www.w3.org/2000/svg"><g
     style="fill:none"
     id="g9"
     transform="matrix(0.99400305,0,0,0.97919311,0.29021614,0.13983191)"><path
       id="path26527"
       style="font-size:4.02307px;font-family:Atomic;-inkscape-font-specification:Atomic;fill:#f6f7f7;fill-opacity:1;stroke-width:12.902"
       d="m 195.87649,0.09248497 q 1.08421,0 1.86709,0.62600218 0.84317,0.58152615 0.84317,1.38665595 V 20.713975 q 0,0.805018 -0.84317,1.431465 -0.78296,0.581529 -1.86709,0.581529 h -9.21501 q -1.08405,0 -1.92734,-0.581529 -0.78298,-0.626003 -0.78298,-1.431465 V 2.1051431 q 0,-0.805019 0.78298,-1.38665595 0.84317,-0.62600218 1.92734,-0.62600218 z M 189.37178,10.917874 193.1662,8.1444517 V 4.1184683 h -3.79442 z m 3.79442,2.95233 -3.79442,2.773422 v 2.05769 h 3.79442 z M 167.97261,0.09248497 q 1.08403,0 1.86707,0.62600218 0.84317,0.58152615 0.84317,1.38665595 V 20.713975 q 0,0.805018 -0.84317,1.431465 -0.78296,0.581529 -1.86707,0.581529 h -9.21504 q -1.08404,0 -1.92731,-0.581529 -0.78299,-0.626003 -0.78299,-1.431465 V 2.1051431 q 0,-0.805019 0.78299,-1.38665595 0.84315,-0.62600218 1.92731,-0.62600218 z M 161.46787,10.917874 165.2623,8.1444517 V 4.1184683 h -3.79443 z m 3.79443,2.95233 -3.79443,2.773422 v 2.05769 h 3.79443 z M 140.06871,0.09248497 q 1.08404,0 1.86708,0.62600218 0.84316,0.58152615 0.84316,1.38665595 V 20.713975 q 0,0.805018 -0.84316,1.431465 -0.78297,0.581529 -1.86708,0.581529 h -9.21503 q -1.08405,0 -1.92733,-0.581529 -0.78298,-0.626003 -0.78298,-1.431465 V 2.1051431 q 0,-0.805019 0.78298,-1.38665595 0.84317,-0.62600218 1.92733,-0.62600218 z M 133.56397,10.917874 137.35839,8.1444517 V 4.1184683 h -3.79442 z m 3.79442,2.95233 -3.79442,2.773422 v 2.05769 h 3.79442 z m -31.879,-3.086536 h 3.97511 V 4.1184683 h -3.79442 v 5.0548283 h -5.42059 V 2.1054767 q 0,-0.8050189 0.78298,-1.38665592 0.84316,-0.62600218 1.92731,-0.62600218 h 9.21503 q 1.08404,0 1.86709,0.62600218 0.84316,0.58152602 0.84316,1.38665592 V 20.714308 q 0,0.805019 -0.84316,1.431464 -0.78297,0.581528 -1.86709,0.581528 h -9.21503 q -1.08404,0 -1.92731,-0.581528 -0.78298,-0.626001 -0.78298,-1.431464 v -5.099527 h 5.42059 v 3.086535 h 3.79442 V 14.80954 h -3.97511 z M 87.353686,22.7273 H 83.162483 V 3.1163086 H 82.184592 V 22.7273 H 77.993388 V 3.1163086 H 77.015489 V 22.7273 H 72.824286 V 1.5598653 q 0,-0.62266655 0.605418,-1.07187618 0.651986,-0.48367807 1.490199,-0.48367807 h 10.338298 q 0.791656,0 1.443642,0.48367807 0.651976,0.44920963 0.651976,1.07187618 z M 59.878153,21.170856 q 0,0.622667 -0.651978,1.106346 -0.605427,0.449209 -1.443649,0.449209 h -7.125043 q -0.83822,0 -1.490201,-0.449209 -0.605423,-0.483679 -0.605423,-1.106346 V 1.5944452 q 0,-0.62266615 0.605423,-1.07187578 0.651981,-0.48367807 1.490201,-0.48367807 h 7.125043 q 0.838222,0 1.443649,0.48367807 0.651978,0.44920963 0.651978,1.07187578 z M 55.686949,19.614413 V 3.150889 H 52.753122 V 19.614413 Z M 35.755574,3.1163086 H 32.821743 V 22.7273 H 28.63054 V 3.1163086 H 25.696697 V 0.00342155 H 35.755574 Z M 5.6721857,10.725515 H 8.5594544 V 3.1163086 H 5.6721857 Z m 2.8872687,3.112777 H 5.6721857 V 22.7273 H 1.4809969 V 1.5598653 q 0,-0.62266655 0.6054221,-1.07187618 0.6519819,-0.48367807 1.4902015,-0.48367807 h 7.0784725 q 0.838219,0 1.443643,0.48367807 0.651981,0.44920963 0.651981,1.07187618 V 22.7273 H 8.5595143 Z" /></g></svg>
